{"title":"From Dusk Till Dawn The Series S01E02 WEB DL x264 AAC E-Subs [GW","uid":9790705,"size":159476483,"categoryP":"video","categoryS":"tv_shows","magnet":"?xt=urn:btih:96d2dcde468b9ef00f76d331e60ea23f6484b2c5&amp;dn=From+Dusk+Till+Dawn+The+Series+S01E02+WEB+DL+x264+AAC+E-Subs+%5BGW&amp;tr=udp%3A%2F%2Ftracker.openbittorrent.com%3A80&amp;tr=udp%3A%2F%2Fopen.demonii.com%3A1337&amp;tr=udp%3A%2F%2Ftracker.coppersurfer.tk%3A6969&amp;tr=udp%3A%2F%2Fexodus.desync.com%3A6969","seeders":1,"leechers":2,"uploader":"canc232","files":1,"time":1395242036,"description":"From Dusk Till Dawn The Series S01E02 WEB DL x264 AAC E-Subs [GWC] \n\n\nSTORYLINE :\nA Texas Ranger is in hot pursuit of the infamous Gecko brothers.\n\n\nSCREENS : &lt;a href=&quot;\nhttp://i.imgur.com/jUzTtur.jpg&quot; rel=&quot;nofollow&quot; target=&quot;_NEW&quot;&gt;\nhttp://i.imgur.com/jUzTtur.jpg&lt;/a&gt; &lt;a href=&quot;\nhttp://i.imgur.com/xcFrMed.jpg&quot; rel=&quot;nofollow&quot; target=&quot;_NEW&quot;&gt;\nhttp://i.imgur.com/xcFrMed.jpg&lt;/a&gt; &lt;a href=&quot;\nhttp://i.imgur.com/9ETcafN.jpg&quot; rel=&quot;nofollow&quot; target=&quot;_NEW&quot;&gt;\nhttp://i.imgur.com/9ETcafN.jpg&lt;/a&gt;\n\n\nMEDIA INFO :\nGeneral \nFormat : MPEG-4 \nFormat profile : Base Media \nFile size : 152 MiB \nDuration : 46mn 17s \nOverall bit rate mode : Variable \nOverall bit rate : 459 Kbps \n\nVideo \nFormat : AVC \nFormat profile : &lt;a class=&quot;__cf_email__&quot; href=&quot;/cdn-cgi/l/email-protection&quot; data-cfemail=&quot;b1f9d8d6d9f1fd829f81&quot;&gt;[email&amp;#160;protected]&lt;/a&gt;&lt;script cf-hash='f9e31' type=&quot;text/javascript&quot;&gt;\n/* &lt;![CDATA[ */!function(){try{var t=&quot;currentScript&quot;in document?document.currentScript:function(){for(var t=document.getElementsByTagName(&quot;script&quot;),e=t.length;e--;)if(t[e].getAttribute(&quot;cf-hash&quot;))return t[e]}();if(t&amp;&amp;t.previousSibling){var e,r,n,i,c=t.previousSibling,a=c.getAttribute(&quot;data-cfemail&quot;);if(a){for(e=&quot;&quot;,r=parseInt(a.substr(0,2),16),n=2;a.length-n;n+=2)i=parseInt(a.substr(n,2),16)^r,e+=String.fromCharCode(i);e=document.createTextNode(e),c.parentNode.replaceChild(e,c)}}}catch(u){}}();/* ]]&gt; */&lt;/script&gt; \nFormat settings, CABAC : Yes \nFormat settings, ReFrames : 4 frames \nDuration : 46mn 17s \nBit rate : 396 Kbps \nMaximum bit rate : 1 871 Kbps \nWidth : 720 pixels \nHeight : 404 pixels \nDisplay aspect ratio : 16:9 \nFrame rate : 25.000 fps \nStream size : 131 MiB (86%) \nTitle : From Dusk Till Dawn The Series S01E02 WEB DL x264 AAC E-Subs [GWC] \nWriting library : x264 core\n\nAudio \nFormat : AAC \nFormat profile : HE-AAC / LC \nDuration : 46mn 17s \nBit rate mode : Variable \nChannel(s) : 2 channels \nSampling rate : 48.0 KHz / 24.0 KHz \nStream size : 19.9 MiB (13%) \nLanguage : English \n\nText \nFormat : Timed Text \nStream size : 27.2 KiB (0%) \nLanguage : English ","torrent":{"xt":"urn:btih:96d2dcde468b9ef00f76d331e60ea23f6484b2c5","amp;dn":"From+Dusk+Till+Dawn+The+Series+S01E02+WEB+DL+x264+AAC+E-Subs+%5BGW","amp;tr":["udp%3A%2F%2Ftracker.openbittorrent.com%3A80","udp%3A%2F%2Fopen.demonii.com%3A1337","udp%3A%2F%2Ftracker.coppersurfer.tk%3A6969","udp%3A%2F%2Fexodus.desync.com%3A6969"],"infoHash":"96d2dcde468b9ef00f76d331e60ea23f6484b2c5","infoHashBuffer":{"type":"Buffer","data":[150,210,220,222,70,139,158,240,15,118,211,49,230,14,162,63,100,132,178,197]},"announce":[],"urlList":[]}}